<?xml version="1.0" standalone="no"?>
<!DOCTYPE svg PUBLIC "-//W3C//DTD SVG 20010904//EN"
 "http://www.w3.org/TR/2001/REC-SVG-20010904/DTD/svg10.dtd">
<svg version="1.0" xmlns="http://www.w3.org/2000/svg"
 width="1024.000000pt" height="1024.000000pt" viewBox="0 0 1024.000000 1024.000000"
 preserveAspectRatio="xMidYMid meet">
<metadata>
Created by potrace 1.16, written by Peter Selinger 2001-2019
</metadata>
<g transform="translate(0.000000,1024.000000) scale(0.100000,-0.100000)"
fill="#000000" stroke="none">
<path d="M5003 8396 c-62 -30 -76 -47 -132 -158 -38 -77 -53 -97 -86 -115 -21
-12 -42 -20 -47 -17 -11 7 -125 18 -183 18 -137 0 -270 -38 -353 -102 -56 -42
-66 -55 -113 -141 -54 -98 -93 -115 -229 -95 -158 23 -217 2 -303 -104 -70
-87 -85 -98 -229 -162 -133 -59 -187 -100 -219 -168 -20 -40 -23 -60 -21 -144
2 -95 2 -98 -28 -131 -19 -22 -73 -56 -147 -93 -206 -102 -270 -189 -280 -384
-7 -142 -15 -165 -72 -205 -85 -62 -93 -138 -17 -177 l28 -15 -62 -69 c-107
-120 -138 -194 -138 -330 0 -62 7 -98 31 -169 30 -87 31 -97 32 -270 1 -187 9
-237 44 -269 18 -17 18 -18 -6 -61 -85 -153 -87 -303 -5 -448 15 -26 53 -83
84 -125 72 -98 77 -128 41 -232 -60 -173 -13 -292 158 -396 31 -19 74 -41 95
-49 38 -15 38 -15 14 2 -13 10 -56 41 -94 68 -154 110 -187 213 -122 370 45
106 33 168 -57 299 -81 118 -115 212 -111 306 2 63 9 93 43 186 17 45 33 106
36 135 l7 54 -26 -54 c-21 -44 -29 -51 -40 -42 -24 20 -35 125 -20 191 3 14 8
72 11 130 4 92 2 118 -21 206 -26 98 -33 193 -21 259 9 47 60 146 104 198 53
64 69 112 46 137 -10 11 -20 19 -24 18 -32 -4 -41 4 -41 37 0 29 6 38 48 67
26 18 54 41 64 53 20 24 40 87 43 135 12 161 39 236 105 292 21 18 88 59 148
92 179 94 214 138 214 265 0 159 23 189 213 281 146 70 191 104 246 185 13 19
43 45 67 56 37 18 52 20 105 14 34 -5 103 -9 153 -9 82 -1 94 2 130 25 27 18
51 48 74 90 53 102 77 126 154 164 99 48 187 64 326 60 63 -3 128 -7 145 -10
61 -13 161 -12 205 1 47 14 90 46 90 67 0 7 -7 3 -15 -7 -8 -11 -15 -17 -15
-13 0 3 -15 0 -32 -7 -34 -13 -68 -14 -153 -1 -48 7 -87 25 -53 25 25 0 72 53
100 112 49 103 107 151 184 151 45 0 114 -29 154 -65 92 -84 178 -127 284
-142 38 -5 107 14 179 49 133 66 209 39 378 -132 132 -133 212 -189 299 -207
14 -3 36 -8 50 -11 14 -3 75 -8 135 -10 128 -6 142 -8 187 -31 65 -33 111
-104 122 -187 27 -199 55 -241 197 -301 37 -15 79 -41 94 -58 28 -32 60 -95
69 -138 3 -14 7 -34 9 -45 3 -11 8 -50 11 -87 23 -228 69 -328 232 -507 242
-264 349 -499 369 -810 9 -134 17 -100 18 79 1 142 -34 295 -102 445 -25 54
-124 208 -154 240 -7 7 -26 30 -43 51 -18 22 -46 55 -63 74 -56 63 -119 164
-139 225 -20 60 -26 92 -38 208 -21 200 -94 335 -206 381 -121 50 -129 55
-148 99 -10 23 -21 60 -24 82 -22 163 -79 260 -179 310 -67 32 -79 35 -212 40
-205 7 -262 34 -420 195 -109 110 -162 151 -235 177 -83 30 -140 24 -236 -27
-134 -70 -216 -59 -366 51 -131 95 -209 115 -295 75z"/>
<path d="M4989 7906 c-2 -2 -28 -7 -58 -10 -128 -15 -341 -81 -466 -143 -322
-162 -593 -426 -714 -696 -43 -96 -46 -121 -5 -42 139 265 409 514 710 656
107 51 282 113 344 123 19 3 46 8 60 11 26 5 79 13 145 20 52 7 173 7 216 1
19 -3 52 -8 74 -11 22 -3 69 -13 105 -21 86 -21 81 -19 113 -32 16 -7 31 -12
34 -12 15 0 177 -88 243 -132 65 -44 205 -150 220 -168 13 -15 162 -120 215
-152 316 -190 598 -155 505 61 -22 50 -97 131 -122 131 -7 0 -1 -8 12 -17 61
-43 114 -141 105 -194 -11 -60 -44 -78 -137 -74 -92 4 -206 49 -335 131 -47
31 -245 185 -279 219 -6 5 -28 24 -48 40 -21 17 -48 38 -60 49 -37 32 -149
102 -221 138 -72 37 -239 94 -302 104 -19 3 -45 8 -57 11 -25 5 -292 13 -297
9z"/>
<path d="M3807 7604 c-1 -2 -14 -5 -27 -7 -62 -12 -90 -22 -160 -58 -41 -21
-93 -56 -116 -76 -85 -79 -175 -224 -222 -358 -19 -52 -73 -252 -86 -317 -9
-42 -14 -63 -24 -103 -6 -22 -13 -51 -16 -65 -7 -36 -53 -204 -77 -280 -11
-36 -22 -72 -24 -80 -2 -8 -11 -35 -20 -60 -9 -25 -18 -52 -20 -60 -2 -8 -38
-114 -79 -235 -92 -266 -115 -384 -110 -560 1 -66 5 -131 8 -145 3 -14 11 -50
17 -80 36 -172 125 -365 245 -525 54 -73 119 -145 131 -145 4 0 -5 12 -19 28
-43 45 -123 171 -176 277 -132 263 -176 540 -127 800 8 44 64 230 82 275 3 8
7 20 9 25 1 6 27 78 58 162 49 132 117 357 132 433 3 14 9 41 14 60 5 19 10
38 10 42 1 4 6 22 11 40 5 18 11 44 14 58 3 14 14 70 24 125 19 94 23 115 36
165 12 47 16 66 21 89 3 13 9 32 15 43 5 10 7 18 3 18 -3 0 -1 7 6 15 7 8 10
15 7 15 -12 0 57 148 99 211 96 146 242 239 419 266 48 8 44 14 -8 12 -26 -2
-49 -4 -50 -5z"/>
<path d="M4617 7074 c-1 -1 -30 -5 -64 -8 -74 -8 -180 -39 -208 -61 -18 -15
-18 -15 10 -1 17 7 46 17 65 20 19 3 49 9 65 12 41 8 198 8 260 0 77 -11 172
-34 260 -63 44 -15 83 -26 88 -25 4 1 7 -3 7 -10 0 -6 3 -9 6 -6 9 10 229
-108 334 -178 119 -80 157 -110 139 -112 -45 -3 -247 -2 -264 1 -11 3 -45 8
-76 11 -31 4 -67 9 -80 12 -34 7 -195 7 -206 1 -6 -4 -25 -9 -44 -12 -84 -15
-171 -70 -218 -138 -45 -65 -62 -138 -60 -253 3 -163 -18 -202 -165 -313 -159
-118 -189 -175 -192 -356 -2 -66 1 -147 6 -180 18 -131 21 -162 21 -217 0
-117 -41 -185 -142 -239 -35 -19 -67 -45 -79 -64 -71 -116 66 -296 179 -236
18 10 50 58 52 78 2 22 7 6 24 -70 10 -45 20 -86 21 -92 2 -5 5 -19 8 -30 50
-207 135 -346 282 -461 232 -182 842 -428 1039 -419 31 1 31 0 -14 -123 -17
-45 -33 -94 -35 -107 -3 -14 -7 -33 -10 -43 -9 -31 -25 -155 -31 -235 -2 -33
-6 -61 -9 -64 -3 -3 -20 1 -38 10 -105 49 -213 81 -323 95 -114 14 -476 5
-493 -13 -3 -3 30 -5 74 -6 135 -2 270 -12 337 -25 144 -27 299 -78 387 -126
352 -195 543 -530 615 -1078 10 -72 16 -104 21 -109 8 -8 8 225 -1 284 -2 17
-7 53 -10 80 -22 176 -101 401 -184 525 -17 24 -29 45 -28 46 1 2 24 5 50 8
57 7 93 24 127 61 44 47 55 49 118 19 139 -68 248 -17 329 153 52 106 134 192
227 238 39 19 85 37 102 40 60 10 162 45 188 66 43 34 50 58 51 161 1 120 11
138 116 190 116 58 137 97 145 271 5 108 10 163 19 212 11 53 54 136 87 167
l33 31 -33 -17 c-34 -18 -85 -80 -107 -133 -19 -44 -34 -125 -40 -218 -6 -69
-11 -111 -19 -150 -11 -53 -64 -101 -136 -124 -84 -26 -131 -107 -124 -210 8
-100 7 -104 -21 -128 -24 -21 -64 -36 -130 -48 -16 -2 -43 -7 -60 -10 -16 -3
-67 -24 -112 -46 -107 -53 -181 -130 -233 -244 -77 -167 -149 -207 -270 -151
-67 31 -95 26 -146 -28 -47 -50 -83 -71 -137 -80 -37 -6 -40 -4 -119 79 -67
71 -196 172 -237 186 -7 3 -7 18 -1 44 5 22 12 56 15 75 3 19 11 55 16 80 6
25 13 56 16 70 19 100 37 189 54 268 11 46 15 52 38 53 154 5 230 45 310 164
53 76 204 357 261 483 57 127 168 406 176 446 46 212 47 295 4 466 -18 69 -36
133 -41 143 -8 14 -5 17 13 17 30 0 134 51 173 84 l30 26 -44 -15 c-24 -8 -68
-15 -98 -15 -63 0 -61 -9 -25 112 34 113 26 254 -23 425 -9 30 -34 95 -56 146
-22 51 -43 97 -45 102 -3 6 16 10 48 10 170 -3 350 97 390 215 41 121 -28 287
-160 386 -37 28 -29 11 14 -31 37 -35 92 -130 108 -186 40 -138 -26 -243 -186
-294 -61 -20 -90 -23 -178 -21 -58 2 -118 6 -135 10 -103 23 -255 87 -329 139
-17 11 -114 82 -216 157 -242 179 -390 268 -545 330 -90 36 -188 69 -225 76
-14 3 -43 9 -65 14 -63 14 -278 32 -288 24z m1233 -622 c94 -65 200 -125 200
-114 0 4 4 2 8 -4 6 -9 115 -50 155 -58 52 -11 113 -21 149 -25 14 -2 85 -261
103 -378 l7 -42 -36 18 c-20 10 -48 17 -63 16 -111 -11 -279 -57 -310 -87 -23
-21 -68 -116 -59 -125 2 -3 67 16 144 41 147 49 162 53 230 62 54 8 102 -11
103 -40 1 -30 -2 -96 -6 -117 -10 -49 -19 -115 -17 -121 3 -12 -8 -10 -66 11
-136 50 -321 -9 -391 -123 -29 -47 -27 -52 22 -48 23 2 70 -3 104 -12 114 -30
253 -16 304 30 18 16 19 16 20 -2 0 -10 2 -26 4 -34 5 -24 16 -91 25 -150 14
-89 4 -265 -20 -360 -24 -98 -126 -403 -179 -535 -48 -120 -212 -392 -281
-467 -76 -82 -124 -98 -280 -94 -175 5 -331 57 -651 216 -503 249 -565 318
-734 815 -15 44 -32 85 -37 90 -6 6 -7 4 -3 -7 9 -22 -11 -81 -33 -101 -46
-42 -119 -19 -152 47 -40 84 -20 135 72 178 139 66 175 166 153 423 -15 165
-11 313 8 371 22 63 74 126 141 169 83 53 140 110 169 167 35 69 37 80 41 219
4 130 20 180 74 236 30 31 95 70 131 79 9 2 32 7 52 12 38 10 233 8 284 -2 36
-8 216 -9 236 -2 8 3 30 7 50 10 19 3 46 9 60 14 21 8 35 1 104 -54 44 -35
118 -90 165 -122z m395 -1033 c10 -30 -13 -76 -43 -88 -45 -18 -99 0 -113 36
-15 40 5 53 31 20 33 -42 95 -17 85 34 -5 27 32 25 40 -2z m95 0 c42 -18 48
-24 40 -39 -12 -22 -87 -60 -118 -60 -22 0 -22 1 -6 25 10 15 15 38 12 60 -5
42 3 44 72 14z m-270 -81 c0 -4 -13 -6 -30 -6 -35 1 -35 1 -13 34 l16 26 13
-24 c7 -12 13 -26 14 -30z"/>
<path d="M4955 5950 c-78 -18 -211 -99 -280 -171 l-40 -41 58 32 c103 57 211
90 286 85 36 -2 76 -6 89 -9 12 -3 30 -8 40 -10 38 -10 145 -47 276 -96 76
-28 140 -49 143 -46 17 17 -11 111 -42 136 -26 21 -280 101 -371 116 -56 9
-128 11 -159 4z"/>
<path d="M5516 5640 c4 -8 20 -33 35 -55 27 -41 60 -127 78 -205 l10 -45 -5
58 c-8 91 -39 165 -95 227 -17 19 -28 28 -23 20z"/>
<path d="M4950 5604 c-25 -6 -63 -19 -85 -28 l-40 -16 35 5 c41 6 79 13 135
25 22 5 78 8 125 7 72 -2 95 -7 150 -33 36 -17 73 -39 83 -48 9 -10 17 -13 17
-8 0 19 -108 82 -166 97 -68 18 -188 18 -254 -1z"/>
<path d="M5957 5557 c-56 -86 -72 -196 -43 -307 l15 -55 -5 50 c-13 146 3 243
54 323 8 12 13 25 10 27 -2 2 -16 -15 -31 -38z"/>
<path d="M4612 5570 c20 -31 112 -94 172 -118 33 -13 75 -34 91 -47 42 -31
117 -64 169 -74 51 -9 197 -6 253 6 21 4 66 7 101 6 l63 -2 -27 37 c-40 54
-108 117 -146 137 -73 36 -221 51 -308 31 -131 -32 -244 -26 -331 17 -34 17
-44 19 -37 7z m590 -102 c3 -7 1 -27 -4 -44 -9 -37 -57 -65 -97 -58 -34 6 -70
42 -73 74 -4 35 21 32 41 -4 9 -16 24 -30 34 -32 24 -3 58 27 60 54 1 24 32
31 39 10z m135 -35 c15 -10 43 -31 60 -48 l33 -30 -120 -3 c-66 -1 -120 1
-120 4 0 4 7 12 16 19 9 6 18 32 21 57 l5 46 38 -13 c21 -8 51 -22 67 -32z
m-331 -17 l10 -34 -25 16 c-42 27 -53 40 -38 45 29 12 43 5 53 -27z"/>
<path d="M6183 5551 c-51 -17 -106 -52 -135 -85 -29 -31 -20 -30 17 3 90 78
204 99 311 55 75 -30 81 -24 10 11 -67 33 -137 38 -203 16z"/>
<path d="M4401 5184 c-2 -24 29 -95 66 -153 34 -53 97 -125 276 -315 l49 -51
-53 65 c-28 36 -80 97 -114 135 -108 122 -121 139 -159 198 -21 32 -44 75 -51
95 -8 20 -14 32 -14 26z"/>
<path d="M5530 4880 c-29 -58 -26 -105 9 -141 23 -23 38 -29 72 -29 46 0 48 8
3 16 -44 7 -72 24 -78 48 -10 36 -7 75 8 111 20 47 11 44 -14 -5z"/>
<path d="M6046 4885 c3 -11 9 -41 11 -67 5 -40 2 -50 -19 -71 -13 -13 -31 -26
-39 -29 -8 -3 -12 -8 -9 -11 3 -3 19 1 36 9 55 27 69 92 33 154 -11 19 -17 26
-13 15z"/>
<path d="M5766 4865 c3 -8 30 -26 59 -40 58 -29 98 -29 141 -1 34 23 30 27 -7
9 -42 -21 -109 -12 -159 21 -25 16 -37 20 -34 11z"/>
<path d="M4467 4845 c14 -25 116 -122 168 -160 27 -19 21 -11 -20 26 -32 30
-81 77 -109 104 -27 28 -44 41 -39 30z"/>
<path d="M5700 4809 c-18 -4 -40 -16 -47 -26 -12 -15 -11 -20 3 -30 14 -11 22
-10 40 2 28 18 75 20 92 3 16 -16 29 -1 16 20 -16 25 -64 40 -104 31z"/>
<path d="M5941 4765 c-48 -41 -73 -51 -121 -46 -13 2 -13 1 0 -8 18 -13 66 -5
94 14 11 8 31 15 44 15 50 0 79 34 49 59 -11 8 -26 0 -66 -34z"/>
<path d="M5559 4773 c6 -12 16 -25 22 -28 20 -13 15 0 -9 25 -22 23 -24 23
-13 3z"/>
<path d="M5791 4625 c-1 -31 13 -45 51 -51 23 -4 38 -2 43 7 6 9 3 11 -9 6
-29 -12 -64 3 -75 31 -7 22 -10 23 -10 7z"/>
<path d="M5718 4565 c-46 -15 -86 -40 -194 -121 -132 -98 -132 -98 36 3 160
95 170 99 239 85 31 -7 67 -9 81 -6 64 14 81 14 102 3 35 -18 68 -59 94 -116
13 -29 26 -53 28 -53 12 0 -32 103 -61 144 -37 53 -76 67 -140 53 -31 -8 -55
-6 -96 5 -44 13 -60 13 -89 3z"/>
<path d="M5650 4374 c-120 -39 -225 -49 -254 -25 -11 9 -16 9 -21 1 -16 -26
-4 -26 280 -20 44 0 91 -2 105 -6 14 -4 52 -6 85 -5 129 4 151 4 187 -4 40 -8
88 0 88 14 0 5 -14 4 -30 -2 -25 -10 -36 -9 -58 5 -85 53 -99 57 -204 62 -89
4 -113 1 -178 -20z m274 -14 c17 -17 -106 -29 -159 -16 -11 2 -36 5 -54 5 -36
1 -33 16 4 23 32 7 199 -3 209 -12z"/>
<path d="M5495 4234 c100 -92 211 -136 335 -133 99 2 167 31 209 90 17 23 31
49 31 58 0 9 -9 1 -21 -18 -28 -46 -56 -67 -108 -82 -69 -20 -153 -18 -259 5
-36 8 -126 51 -179 86 l-48 31 40 -37z"/>
<path d="M5693 4059 c-18 -5 -33 -11 -33 -13 0 -1 45 -1 100 0 55 2 111 -1
126 -6 16 -6 23 -6 19 0 -16 26 -146 38 -212 19z"/>
<path d="M7103 6570 c148 -215 230 -475 230 -730 0 -204 -42 -354 -183 -650
-109 -228 -167 -368 -185 -446 -2 -10 -9 -37 -14 -59 -17 -69 -25 -146 -25
-255 0 -128 7 -192 34 -290 26 -91 43 -114 25 -33 -7 32 -16 78 -19 103 -8 54
-8 245 -1 280 2 13 7 42 10 63 9 59 59 224 90 297 15 35 76 161 135 280 97
193 161 351 175 428 2 15 8 45 12 67 15 88 9 327 -12 415 -3 14 -8 36 -11 49
-30 146 -155 383 -264 501 l-42 45 45 -65z"/>
<path d="M2858 6372 c-120 -135 -217 -362 -244 -572 -11 -80 -11 -346 -1 -420
37 -276 113 -510 239 -743 115 -212 276 -397 533 -612 33 -27 73 -61 90 -75
151 -126 279 -279 325 -385 45 -106 47 -223 5 -307 -7 -16 -10 -28 -6 -28 8 0
45 78 57 120 26 92 -11 233 -93 359 -55 85 -113 146 -434 456 -161 156 -181
178 -261 285 -162 216 -280 468 -353 754 -33 129 -37 151 -52 271 -14 116 -8
343 12 435 3 14 8 39 11 55 9 49 62 201 88 253 14 27 45 79 70 116 50 71 53
82 14 38z"/>
<path d="M7546 6311 c-6 -10 1 -195 9 -231 3 -14 7 -36 10 -50 2 -14 32 -128
65 -255 63 -237 94 -364 104 -425 30 -183 36 -245 37 -360 0 -115 -4 -152 -28
-250 -25 -105 -75 -180 -118 -180 -44 0 -100 79 -150 213 -30 79 -35 63 -8
-25 55 -179 109 -244 187 -224 62 15 141 152 163 281 2 11 6 34 9 50 20 102 9
398 -21 535 -3 14 -8 39 -11 55 -16 92 -51 214 -119 419 -82 248 -113 360
-117 419 -2 39 -4 42 -12 28z"/>
<path d="M7354 4927 c0 -97 -8 -186 -24 -277 -15 -84 -16 -89 -45 -180 -75
-240 -181 -425 -377 -657 -147 -175 -249 -316 -293 -407 -44 -90 -82 -216 -64
-216 5 0 9 5 9 11 0 43 162 301 234 375 111 112 256 287 331 399 98 148 192
367 220 515 3 14 7 35 9 47 18 88 26 314 16 436 -6 72 -15 45 -16 -46z"/>
<path d="M4348 4210 c15 -146 7 -451 -14 -570 -13 -77 -57 -208 -91 -273 -40
-76 -123 -189 -199 -270 -27 -29 -75 -80 -107 -114 l-57 -62 -25 32 c-13 18
-46 61 -72 96 -72 97 -103 109 -205 80 -64 -18 -123 -2 -202 55 -179 128 -308
312 -471 671 -37 80 -119 195 -139 195 -7 0 -6 -3 1 -8 12 -7 83 -144 83 -160
0 -15 110 -284 146 -355 82 -165 197 -302 325 -389 113 -77 194 -95 287 -64
65 22 88 12 152 -66 28 -35 63 -73 77 -84 l25 -22 -79 -103 c-168 -218 -268
-414 -336 -659 -9 -30 -18 -66 -20 -80 -3 -14 -8 -36 -11 -50 -12 -54 -16
-105 -6 -89 5 8 11 26 14 40 23 125 132 376 233 541 54 87 152 224 197 276 14
15 33 37 43 48 10 12 78 85 151 162 152 161 179 193 229 275 33 55 106 217 97
217 -2 0 1 11 6 26 24 61 37 189 35 327 -3 137 -8 180 -37 317 -25 118 -38
144 -30 60z"/>
</g>
</svg>
